<svg xmlns="http://www.w3.org/2000/svg" width="100%" height="100%" viewBox="0 0 32 32" fill-rule="evenodd" stroke-linejoin="round" stroke-miterlimit="2" xmlns:v="https://vecta.io/nano"><path d="M26.481 7.81l1.512 1.417s.408 16.549-.01 20.343c-.127 1.152-2.497 2.419-2.497 2.419H6.718s-2.73-1.173-2.89-2.419c-.484-3.752-.013-20.096-.013-20.096L5.429 7.81h21.051z" fill="#145d9f" stroke="#000"/><path d="M16.133 8.386H8.835s-4.82-.814-5.713-1.809C.748 3.935 2.014-.878 5.766.039c5.309 1.297 7.857 3.708 8.08 4.416.007.022.625-.863 2.227-.872 1.752-.01 1.95.941 2.074.872.636-.356 2.794-3.157 7.98-4.454 3.664-.917 4.81 3.896 2.491 6.539-.873.995-5.84 1.847-5.84 1.847h-6.644z" fill="#d00"/><path d="M3.218 7.81h25.284v6.116H3.218z" fill="#145d9f" stroke="#000"/><g fill="#d00"><path d="M13.409 8.397h4.902v23.59h-4.902z"/><path d="M12.66 8.397h6.274v5.568H12.66z"/></g></svg>