<svg xmlns="http://www.w3.org/2000/svg" viewBox="-0.5 -0.5 344 665"><style><![CDATA[.B{pointer-events:all}.C{fill:#fff}.D{stroke:#000}.E{fill:#000}.F{font-weight:900}.G{text-anchor:middle}.H{font-size:36px}.I{font-size:40px}]]></style><path d="M2 0h340v60H2z" class="B C D"/><text x="171.5" y="44.5" class="E F G I">Me</text><path d="M2 210h340v60H2z" class="B C D"/><text x="171.5" y="254.5" class="E F G I">God</text><path d="M2 60h340v50H2z" class="B C D"/><text x="171.5" y="98.5" class="E F G H">Known Sins</text><path d="M2 110h340v50H2z" class="B C D"/><text x="171.5" y="148.5" class="E F G H">Unknown Sins</text><path d="M172 160h170v50H172z" class="B C D"/><text x="256.5" y="196.5" font-size="26" class="E F G">Stronghold 2</text><path d="M2 160h170v50H2z" class="B C D"/><text x="86.5" y="196.5" font-size="26" class="E F G">Stronghold 1</text><path d="M2 394h340v60H2z" class="B C D"/><text x="171.5" y="438.5" class="E F G I">Me</text><path d="M2 604h340v60H2z" class="B C D"/><text x="171.5" y="648.5" class="E F G I">God</text><path d="M72 454h270v50H72z" class="B C D"/><text x="206.5" y="492.5" class="E F G H">Known Sins</text><path d="M72 504h270v50H72z" class="B C D"/><text x="206.5" y="542.5" class="E F G H">Unknown Sins</text><path d="M2 454h40v100H2z" class="B C D"/><text x="17.5" y="520.5" transform="rotate(270 18 504)" class="E F G H">Sins</text><path d="M42 437h30v120H42zM2.5 596h169v10H2.5z" class="C B"/><g class="D"><g stroke-miterlimit="10"><path d="M165.67 300.5h10v40h10.5l-15.5 19-15.5-19h10.5z" stroke-linejoin="round" class="B"/><path d="M2 604v-50" fill="none" pointer-events="stroke"/></g><path d="M172 554h170v50H172z" class="B C"/></g><text x="256.5" y="590.5" font-size="26" class="E F G">Stronghold 2</text></svg>