<svg xmlns="http://www.w3.org/2000/svg" width="100%" height="100%" viewBox="0 0 180 208" fill-rule="evenodd" stroke-linecap="round" stroke-linejoin="round" stroke-miterlimit="1.5" xmlns:v="https://vecta.io/nano"><g opacity=".1" transform="matrix(1.02307 0 0 1.01036 -290.223 -97.8939)"><path d="M430.703 180.545c.516-.425 8.834-5.656 15.328-2.143s7.356 5.779 7.376 7.163 4.934 3.584 5.432 5.471-.067 3.749-.067 3.749-3.81-2.846-5.943-2.54c-2.678.384-7.08 1.999-10.125 4.846-5.136 4.803-8.044 12.627-9.022 14.757-3.51 7.635-4.265 18.507-21.843 32.861-6.373 5.204-13.734 6.679-18.242 9.83-3.287 2.297-4.178 3.714-5.019 4.395s5.378-.15 7.14 1.103c5.626 4.004 3.705 7.059 3.048 8.008s-4.589 2.953-4.589 2.953-1.414-.026-1.309-1.375 1.063-2.882.152-4.526-1.53-1.658-4.539-1.328-5.037 1.148-5.037 1.148 9.774 3.985 9.664 7.226c-.097 2.881-3.391 9.823-10.962 9.842-.827.002.896-1.097 1.015-2.174.173-1.554-.402-2.999.555-3.486 1.621-.824 5.274-2.174 2.616-3.43-2.39-1.13-4.54.388-6.361 2.297-.885.928-1.109-1.043-.56-3.352.291-1.222 1.945-2.094 1.432-2.583-2.067-1.969-2.519-2.83-6.023-.532-1.908 1.251-3.356-2.791-4.83-1.796-3.425 2.309-4.707 1.086-5.764 3.223-3.782 7.647-15.598 27.081-18.038 27.171s-1.382-2.046-3.599-.294c-2.104 1.663-4.095 3.628-5.416 2.33-.694-.681-2.05 2.953-3.487 2.728-2.276-.355-.785-2.837-1.946-2.781-3.659.176-3.846-2.394-4.039-3.696s-2.849 1.132-3.566-2.942.499-3.985.765-5.453c.631-3.472-1.234-5.174 3.371-9.248 2.577-2.281 2.537-3.41 2.418-5.294-.126-2.002 25.371-18.42 25.371-18.42s.799-3.989 3.192-8.97 6.618-10.385 7.12-11.142-6.675.319-7.578-1.995c-.469-1.202-2.719.62-3.961.168-1.488-.542-3.074-3.365-4.963-3.418s-1.652 3.097-6.368 3.104c-4.006.007-16.826-8.019-17.451-10.02-.423-1.356-3.216.031-5.448-1.044-1.628-.784-7.767-7.233-8.319-10.567s-1.947-2.236-4.791-4.949c-3.759-3.587-2.966-4.733-2.663-6.085.091-.405-9.216-4.157-6.423-10.446.567-1.277-7.348-5.062-3.635-11.187 1.027-1.693-7.053-5.388-4.552-9.64.569-.968-7.667-8.267-1.766-9.579 1.371-.305-2.119-4.963-2.741-6.241s-1.868-6.888.369-6.919c1.431-.005 2.858.165 4.248.507s-1.964-4.472-2.231-7.125.222-9.64 1.179-12.571c1.657-5.072 14.644 13.771 14.644 13.771s-2.122-7.967-.128-12.813c1.127-2.74 2.796-3.95 3.95-3.648s4.117 4.208 5.085 7.131 6.826 19.833 10.713 24.831c12.56 16.153 23.292 21.218 39.868 29.651 1.12.569-2.291-2.933-.815-4.783 1.581-1.98 2.649.16 1.989-2.399-1.55-6.012 1.563-4.246.934-7.331-.622-3.048-2.304-5.79-.149-7.458 3.247-2.513-.188-3.552-.182-7.145.011-6.625 3.952-4.205 4.454-6.669s-2.082-3.934-1.443-8.118c.306-2.008 1.669-3.171 3.367-3.752s4.112-.09 4.112-.09-4.119-4.818-2.722-7.685c2.034-4.171 10.388-2.947 10.388-2.947s-2.893-4.684-3.353-8.22c-.532-4.088 2.607-5.664 3.794-6.272 4.515-2.313 7.782-.687 7.782-.687s-2.212-7.647.202-9.36 8.552.406 8.552.406-1.163-4.457 2.399-4.876c2.387-.281 7.206 2.139 8.059 5.57s2.233 16.491 2.233 17.515-.167-11.608 4.389-15.653c3.903-3.464 6.192-4.667 7.025-1.259s-1.784 48.879-3.256 53.226c-1.014 2.996 1.852 1.295 1.36 4.923-1.73 12.756-5.045 11.646-5.631 14.751-.752 3.983-.433 11.172-.341 12.967.026.518 10.65-6.292 14.143-9.165z" fill="#dcd7cd"/><g transform="matrix(.599374 0 0 .599374 -4.14601 2.06434)"><clipPath id="A"><path d="M725.505 297.778c.861-.709 14.739-9.436 25.573-3.575s12.273 9.642 12.306 11.95 8.232 5.979 9.063 9.128-.112 6.255-.112 6.255-6.357-4.749-9.915-4.238c-4.468.641-11.813 3.335-16.892 8.085-8.569 8.013-13.42 21.067-15.053 24.621-5.856 12.739-7.115 30.877-36.443 54.826-10.633 8.683-22.914 11.143-30.435 16.401-5.484 3.832-6.971 6.197-8.374 7.332s8.973-.25 11.912 1.841c9.387 6.68 6.181 11.777 5.085 13.361s-7.657 4.927-7.657 4.927-2.359-.044-2.184-2.294 1.773-4.808.253-7.552-2.552-2.767-7.573-2.216-8.404 1.915-8.404 1.915 16.307 6.649 16.124 12.056c-.162 4.807-5.658 16.388-18.289 16.421-1.38.004 1.495-1.831 1.694-3.627.288-2.593-.67-5.003.926-5.816 2.704-1.375 8.799-3.627 4.364-5.723-3.988-1.885-7.575.647-10.613 3.832-1.476 1.548-1.851-1.74-.934-5.593.485-2.038 3.245-3.494 2.389-4.31-3.449-3.285-4.203-4.721-10.049-.888-3.183 2.088-5.599-4.656-8.059-2.997-5.714 3.853-7.853 1.812-9.617 5.378-6.31 12.758-26.023 45.182-30.094 45.332-4.064.149-2.306-3.414-6.005-.491-3.511 2.774-6.832 6.053-9.036 3.887-1.158-1.137-3.421 4.926-5.817 4.551-3.798-.593-1.31-4.733-3.247-4.64-6.105.293-6.417-3.994-6.739-6.167s-4.753 1.888-5.95-4.909.833-6.648 1.277-9.097c1.052-5.793-2.058-8.632 5.625-15.43 4.3-3.805 4.232-5.689 4.034-8.832-.21-3.34 42.329-30.732 42.329-30.732s1.333-6.656 5.325-14.965 11.041-17.326 11.879-18.59-11.136.532-12.643-3.329c-.783-2.006-4.537 1.034-6.608.28-2.482-.904-5.129-5.615-8.28-5.702s-2.756 5.167-10.624 5.179c-6.684.011-28.073-13.379-29.115-16.717-.706-2.262-5.365.052-9.089-1.742-2.716-1.308-12.958-12.067-13.88-17.63s-3.249-3.731-7.993-8.257c-6.272-5.984-4.949-7.897-4.443-10.152.152-.675-15.376-6.936-10.716-17.429.946-2.13-12.26-8.445-6.065-18.665 1.713-2.825-11.767-8.989-7.594-16.084.95-1.615-12.792-13.793-2.947-15.981 2.288-.509-3.535-8.281-4.573-10.413s-3.116-11.492.616-11.543a29.29 29.29 0 0 1 7.088.846c2.319.57-3.276-7.461-3.723-11.888s.37-16.084 1.967-20.973c2.764-8.462 24.432 22.975 24.432 22.975s-3.541-13.293-.213-21.377c1.881-4.572 4.665-6.591 6.591-6.087s6.869 7.02 8.484 11.898 11.388 33.09 17.873 41.429c20.955 26.95 38.86 35.4 66.516 49.47 1.869.95-3.822-4.894-1.359-7.98 2.637-3.303 4.419.267 3.318-4.002-2.586-10.03 2.608-7.084 1.559-12.231-1.038-5.086-3.844-9.66-.249-12.443 5.417-4.193-.313-5.927-.303-11.921.019-11.054 6.594-7.015 7.431-11.127s-3.474-6.563-2.408-13.544c.511-3.35 2.784-5.29 5.618-6.26s6.861-.15 6.861-.15-6.873-8.038-4.541-12.821c3.393-6.959 17.331-4.916 17.331-4.916s-4.826-7.814-5.594-13.714c-.888-6.82 4.35-9.45 6.33-10.464 7.533-3.859 12.984-1.147 12.984-1.147s-3.69-12.758.337-15.616 14.268.677 14.268.677-1.94-7.436 4.003-8.135c3.983-.468 12.023 3.568 13.446 9.293s3.725 27.514 3.726 29.222-.279-19.367 7.323-26.116c6.511-5.78 10.331-7.787 11.721-2.1s-2.976 81.55-5.432 88.802c-1.692 4.998 3.09 2.16 2.269 8.214-2.887 21.282-8.417 19.431-9.395 24.611-1.254 6.645-.722 18.64-.569 21.634.044.864 17.768-10.498 23.597-15.291z"/></clipPath><g clip-path="url(#A)"><path d="M731.826 291.347s-8.442 9.838-10.447 15.925c-1.543 4.684-22.194 20.813-27.996 32.122-5.835 11.375-10.052 23.761-14.007 25.766-17.241 8.739-19.568 16.349-29.481 26.461-6.723 6.858-36.025 27.095-2.256 44.498 3.405 1.755-2.185 1.339-6.892 2.471-1.861.447-5.017 7.043-12.428 7.26-5.919.174-7.155-3.298-13.778.828-13.617 8.484-22.363 30.325-32.043 30.891-7.355.43-.233-15.696.881-17.667 1.518-2.685-8.713 3.689-6.699-2.978.535-1.77 4.248-5.824 4.614-7.952.159-.922-2.195-2.189-1.142-4.379 1.841-3.831 11.378-9.367 14.652-12.863 3.692-3.941-12.23-.916-10.587-5.028 4.769-11.938 23.004-30.347 25.395-35.102 3.892-7.742 17.759-3.775 20.268-5.43 12.189-8.04 14.632-13.099 11.322-20.505-.582-1.301-1.765-.707-3.001.316-1.664 1.376-8.449.995-14.939-.75-1.182-.318-3.777-3.668-1.248-9.596 1.051-2.462-12.332 6.102-13.45 2.355-1.321-4.429 1.32-5.295-6.467-2.886-8.282 2.562-24.63-14.742-26.16-22.057-.587-2.805-1.104-7.254-2.336-8.912-3.339-4.493-7.636-4.459-10.081-7.891-1.17-1.642-1.28-4.545-4.732-11.295-2.903-5.675-8.769-10.479-9.723-15.186-.961-4.739 5.385-.861 6.597-2.037.884-.858-.863-4.149-2.854-7.672-2.053-3.631 2.328.783 3.189-11.369.248-3.497 13.624 11.161 37.232 25.179 30.22 17.944 70.045 39.892 70.045 39.892s-17.266-19.816-3.509-20.883c1.348-.104-13.799-26.006 3.519-21.793 1.794.437-5.88-28.826 5.41-29.581 5.308-.355-6.24-5.936-1.804-14.219 2.852-5.326 14.418-1.861 14.418-1.861s-5.172-15.282 1.764-20.311c8.432-6.113 17.061-.014 21.095 4.522 2.151 2.419 5.193 2.673 8.019-1.117 11.02-14.778 5.396 42.499 6.933 43.814 1.95 1.668 12.707 19.02 12.707 19.02z" fill="#d1cdc6"/><path d="M765.644 306.237c-1.999 1.084-11.43 4.472-12.854 3.654-1.481-.85 2.964 5.118 9.123 8.412.354.189-34.883 55.142-58.402 94.722-2.539 4.274-44.805 13.02-48.11 16.004-2.752 2.484-5.224 4.087-8.199 8.686-1.563 2.416-3.231-2.406-7.159 1.577-9.749 9.881-4.407 35.386-3.69 36.037 9.79 8.897 60.464-15.091 73.96-32.389 29.496-37.809 71.207-114.084 75.99-113.575 6.785.723.105-11.59.105-11.59s-18.766-12.621-20.764-11.538z" fill="#abaaa7"/></g></g><path d="M390.876 189.174c-.611-1.061-1.581-2.812-2.23-4.851-.671-2.106-.998-4.513-.28-6.802.311-.991 1.053-1.476 1.92-1.663 1.02-.221 2.216-.004 2.918.17-.19-1.496-.64-5.545-.513-9.456.082-2.508.403-4.959 1.167-6.663.262-.584.63-.871 1.041-1.024.478-.177 1.026-.149 1.527-.209.387-.047.744-.156.974-.581-.005-.02-.019-.073-.035-.108-.075-.166-.22-.375-.401-.623-.683-.939-1.845-2.383-2.127-4.105-.188-1.146.004-2.415.972-3.745.581-.798 1.888-1.104 3.327-1.131 1.943-.036 4.119.4 4.877.567-.239-.855-.932-3.567-.943-6.231-.006-1.574.227-3.131.924-4.285 1.331-2.201 4.25-3.679 7.568-2.887 2.194.523 4.565 2.041 6.756 5.009-2.215-2.927-4.589-4.415-6.778-4.91-3.253-.735-6.096.726-7.371 2.893-.665 1.13-.868 2.647-.843 4.178.05 3.177 1.085 6.41 1.085 6.41a.17.17 0 0 1-.037.164c-.041.044-.102.062-.161.048 0 0-2.712-.633-5.067-.561-1.287.04-2.471.27-2.983.991-.865 1.218-1.035 2.371-.852 3.41.345 1.961 1.903 3.517 2.424 4.354.214.345.25.623.164.794-.324.643-.833.836-1.4.911-.457.061-.958.026-1.392.194-.281.108-.524.317-.699.72-.717 1.651-.987 4.021-1.038 6.44-.102 4.86.697 9.923.697 9.923.02.136-.031.273-.137.361s-.25.115-.38.07c0 0-1.726-.589-3.082-.28-.578.132-1.086.443-1.287 1.108-.376 1.247-.409 2.529-.244 3.766.438 3.286 2.27 6.265 3.029 7.544l.358.659a.63.63 0 0 1 .043.331c-.033.209-.153.327-.307.393-.078.033-.323.099-.64-.135-.611-.454-2.148-.122-2.626 1.28-.291.851-.196 2.065.556 3.728.402.889 2.637 4.135 3.651 5.412l.13.158c3.564-2.113 6.625-3.708 9.241-4.95 4.64-2.203 7.876-3.295 10.046-4.222 1.156-.493 2.623-1.331 4.259-2.342 2.05-1.266 4.351-2.815 6.62-4.347 4.014-2.712 7.918-5.379 10.047-6.531.78-.42 3.089-1.069 4.078-1.347.078-.022.162-.034.231-.045a1.02 1.02 0 0 0-.014.059.54.54 0 0 1 .073-.07c.063-.012.102-.027.093-.056.23-.104.505-.01.619.218.047.089.17.428-.204.634a.77.77 0 0 1-.108.046c-.069.025-.215.071-.416.135-.928.291-3.099.952-3.825 1.371-2.116 1.215-5.987 4.07-9.994 6.87l-4.334 2.941c-2.542 1.656-4.896 3.032-6.588 3.738-2.168.903-5.399 1.962-10.039 4.11-2.692 1.247-5.861 2.86-9.573 5.027a.61.61 0 0 1-.734-.081c-.1-.083-.289-.291-.526-.596-1.044-1.342-3.325-4.758-3.733-5.689-1.172-2.672-.834-4.401-.068-5.405.682-.894 1.729-1.24 2.596-1.202l-.002-.002zm46.775-12.051c.04-.162.093-.249.152-.066a.52.52 0 0 0-.093.056 1.21 1.21 0 0 1-.059.01z"/><path d="M405.737 207.894a.12.12 0 0 1 .059.158c-.027.06-.098.086-.158.059l-10.539-4.521-6.992-3.116c-1.461-.68-4.661-2.374-8.385-4.449l-5.482-3.116-5.4-3.254-7.994-5.125c-.333-.231-.416-.69-.185-1.023s.69-.416 1.023-.185l7.716 4.673 5.199 3.072 8.618 5.199 5.417 3.137 6.814 3.437 10.29 5.052-.001.002zm-61.524 63.293c-.318-.291-.841-.862-.979-1.576a1.92 1.92 0 0 1 .298-1.449c.339-.526 1.37-1.449 2.643-2.464l6.687-4.953-6.503 5.176c-1.201 1.02-2.184 1.928-2.498 2.446a1.53 1.53 0 0 0-.119 1.445c.189.456.538.811.769 1.011l1.881-2.08c2.107-2.127 1.84-1.146.523.317l-1.411 1.527-1.528 1.944c-.852 1.171-1.675 2.474-2.228 3.764-.163.378-.204.64-.095.819.128.212.424.266.767.289 1.306.09 3.314-.593 3.314-.593.139-.047.293 0 .382.117s.094.278.011.4c0 0-1.226 1.819-2.017 4.221-.462 1.404-.778 3.008-.599 4.564.125 1.076.474 1.608 1.023 1.768.623.181 1.422-.076 2.252-.429 2.947-1.25 8.605-9.879 13.405-14.939 1.417-1.493 2.761-2.681 3.94-3.305.135-.072.303-.02.375.114s.02.303-.114.375c-1.133.607-2.418 1.767-3.778 3.214-4.841 5.15-10.585 13.876-13.565 15.155-.991.424-1.956.675-2.701.46s-1.335-.87-1.507-2.333c-.155-1.317.019-2.667.343-3.917.505-1.942 1.374-3.637 1.908-4.569-.975.248-2.539.557-3.386.249-.681-.248-1.066-.8-.575-1.926.582-1.33 1.436-2.676 2.33-3.876a33.2 33.2 0 0 1 .75-.965l.002-.001zm24.085-55.827c-.615.191-1.844.9-3.237 1.434l-.976.333c-1.21.355-2.463.48-3.53.071-.342-.131-.538-.415-.623-.804-.102-.463-.017-1.12-.044-1.657-.011-.222.015-.437-.165-.489-.277-.08-.534.058-.857.215-.669.325-1.513.812-2.827.924-.763.065-1.685.003-2.824-.299-1.282-.342-3.026-1.598-4.725-3.125-2.49-2.238-4.902-5.035-5.666-6.102-1.094-1.542-1.662-2.618-1.964-3.457-.743-2.067.218-2.648-1.302-5.533-.737-1.402-1.951-2.119-3.123-2.74-.969-.514-1.913-.965-2.602-1.613-.49-.46-.858-1.015-1.029-1.749-.322-1.389-.997-3.163-1.77-4.82-.865-1.853-1.852-3.559-2.618-4.402-.915-1.009-2.436-3.003-3.214-4.631-.508-1.062-.677-1.981-.245-2.409.224-.221.512-.327.837-.354.742-.062 1.678.29 2.353.431.417.087.728.111.782-.182.073-.396-.027-.886-.218-1.424-.35-.979-1.006-2.108-1.527-3.108l1.616 3.075c.216.554.328 1.064.264 1.479-.031.198-.148.301-.327.343-.737.173-2.76-.972-3.606-.091-.371.387-.127 1.181.343 2.106.803 1.579 2.345 3.497 3.267 4.465.807.849 1.866 2.575 2.797 4.46.83 1.681 1.555 3.487 1.916 4.903.149.589.456 1.029.857 1.392.818.741 2.007 1.178 3.146 1.811 1.09.607 2.133 1.38 2.834 2.664 1.589 2.918.643 3.515 1.425 5.613.291.783.839 1.783 1.878 3.22.746 1.04 3.11 3.757 5.533 5.947 1.567 1.416 3.146 2.623 4.329 2.946 1.014.278 1.835.345 2.516.294 1.172-.089 1.925-.53 2.525-.814.547-.259 1.004-.39 1.469-.249.38.115.598.391.695.783.113.458.025 1.124.037 1.681.006.244-.028.477.153.549.685.273 1.465.267 2.252.127 1.936-.345 3.916-1.492 4.85-1.822.543-.192.879-.041.969.162.068.152.064.437-.028.815-.134.557-.417 1.403-.458 2.328-.026.596.048 1.227.344 1.83.348.709 1.213 1.097 2.257 1.337 2.359.541 5.635.26 6.836.352.18.014.285-.154.406-.319.162-.221.325-.465.539-.593a.72.72 0 0 1 .466-.102c.289.034.533.141.749.295.761.548 1.094 1.77 2 1.964.622.133 1.793.164 3.031.152l4.594-.185c.03-.002.056.02.058.05s-.02.056-.05.058l-4.597.286c-1.262.041-2.454.032-3.09-.089-.942-.18-1.341-1.407-2.142-1.956-.171-.117-.363-.198-.59-.22-.204-.02-.334.117-.453.27-.162.208-.302.456-.474.606-.135.119-.289.186-.474.176-1.218-.07-4.526.27-6.922-.23-1.241-.26-2.238-.758-2.666-1.589-.357-.693-.463-1.422-.445-2.113.025-.973.3-1.869.432-2.457l.056-.222-.003.002zm-36.732-45.223c-.019-.023-.016-.058.007-.077s.058-.016.077.007c1.297 1.505 2.683 2.93 4.15 4.269 1.017.914 2.108 1.787 3.133 2.39 1.369.808 2.38 1.708 3.229 2.737 1.23 1.488 2.117 3.249 3.262 5.403.814 1.539 2.269 3.285 3.754 4.818 1.914 1.974 3.876 3.596 4.604 3.889.49.198 2.475 1.245 4.908 2.576l11.218 6.186 3.689 1.768c.885.517 1.883 1.258 3.261 2.589 1.667 1.621 6.063 4.675 10.756 7.478 4.304 2.572 8.855 4.932 11.823 5.75-3-.725-7.645-2.932-12.034-5.385-4.827-2.698-9.341-5.693-11.069-7.289-1.339-1.244-2.302-1.935-3.155-2.412-1.208-.677-2.198-.931-3.691-1.69-2.106-1.097-10.714-5.94-14.446-7.951-.792-.427-1.358-.727-1.587-.823-.765-.322-2.841-2.038-4.826-4.163-1.503-1.609-2.959-3.447-3.765-5.051-1.074-2.145-1.901-3.9-3.075-5.392-.795-1.012-1.75-1.902-3.053-2.714-1.025-.641-2.112-1.556-3.12-2.514-2.212-2.1-4.05-4.398-4.05-4.398v-.001zm116.167 18l.845 1.146c1.085 1.393 2.52 2.966 3.578 3.022-1.204.12-3.216-1.53-4.524-2.92-.802-.853-1.308-1.645-1.359-1.854a.5.5 0 0 1 .11-.465c.077-.092.395-.324.83.008.105.082.292.074.523.073.509-.003 1.177-.119 1.88-.273 1.925-.423 4.097-1.164 4.097-1.164.188-.07.401.026.474.213s-.026.401-.213.474-2.758 1.141-4.858 1.573c-.512.105-.988.165-1.382.167h-.001zm-.468-.686c.045-.103.058-.189-.049-.144-.041.017-.007.073.049.144zm-47.377-85.265c.006-.313.265-.562.578-.556s.56.268.556.578c-.053 2.329.249 6.135.799 10.278.296 2.233.673 4.56 1.102 6.814.837 4.396 1.905 8.496 3.371 10.96-1.658-2.371-3.131-6.392-4.208-10.778-.553-2.251-.988-4.595-1.329-6.845-.637-4.203-.909-8.082-.869-10.451zm15.751 65.427l3.335-6.17c.689-1.468 1.286-2.959 1.605-4.292.088-.305.407-.481.711-.393s.481.406.393.711c-.46 1.356-1.213 2.853-2.076 4.309-1.363 2.297-2.971 4.479-3.967 5.835h-.001zm-24.896-55.864c-.132-.447.123-.916.57-1.048s.916.123 1.048.57l.732 3.124.411 1.326 2.505 6.47c1.678 4.009 3.634 8.051 5.31 10.252-1.135-1.374-2.407-3.51-3.671-5.904-1.787-3.383-3.499-7.302-4.818-10.307l-.605-1.337-1.482-3.146zm-8.201 15.367c-.223-.378-.096-.865.281-1.088s.865-.096 1.088.281c0 0 1.455 2.993 3.169 5.616.903 1.381 1.868 2.646 2.718 3.326-.95-.564-2.091-1.705-3.199-2.959-2.117-2.393-4.057-5.176-4.057-5.176zm-7.301 10.924c-.285-.333-.246-.835.087-1.12s.835-.246 1.12.087c0 0 3.639 4.658 7.401 8.668 2.032 2.166 4.097 4.135 5.629 5.09-1.614-.836-3.834-2.654-6.053-4.658-4.114-3.716-8.184-8.067-8.184-8.067zm-7.554 31.931c-.061-.086-.039-.206.048-.267s.206-.039.267.048l2.291 2.903 3.581 4.235c1.557 1.649 3.224 3.141 4.754 3.882-1.578-.666-3.34-2.07-4.982-3.657-1.41-1.364-2.752-2.841-3.775-4.122l-2.184-3.021v-.001zm45.255-47.308c.003-.046.042-.081.088-.078s.081.042.078.088l-.138 3.617-.645 8.421.336-8.439.282-3.608-.001-.001zM302.633 139.67a.97.97 0 0 1-.083-.394c0-.532.438-.971.971-.971a.97.97 0 0 1 .863.527c1.111 2.595 2.706 5.153 4.446 7.535 3.083 4.22 6.595 7.869 8.753 10.103-2.366-2.048-6.23-5.385-9.69-9.355-2.02-2.317-3.882-4.847-5.26-7.445zm-12.956 6.84a.97.97 0 0 1-.17-.549c0-.532.438-.97.97-.97a.97.97 0 0 1 .8.421c.181.263 4.569 6.996 12.284 14.594 4.179 4.115 9.266 8.405 15.063 11.856-6.006-3.161-11.348-7.196-15.755-11.118-8.229-7.324-13.193-14.233-13.193-14.233l.001-.001zm-1.56 11.954a.97.97 0 0 1-.288-.69c0-.532.438-.97.97-.97.255 0 .5.101.682.28l11.756 11.878 5.197 4.86c1.94 1.533 4.866 3.294 7.825 4.845 3.178 1.667 6.391 3.091 8.47 3.733-2.115-.544-5.401-1.818-8.665-3.337-3.074-1.43-6.121-3.076-8.16-4.535-1.019-.73-3.101-2.534-5.494-4.685l-12.291-11.379h-.002zm5.945 18.863a.97.97 0 0 1-.396-.783c0-.532.438-.97.97-.97a.97.97 0 0 1 .574.188c.166.122 3.952 3.125 10.461 6.192 3.275 1.543 7.176 3.077 11.558 4.187-4.492-.754-8.54-1.964-11.953-3.256-6.928-2.622-11.214-5.557-11.214-5.557v-.001zm3.963 12.136a.97.97 0 0 1-.554-.877c0-.532.438-.97.97-.97.144 0 .286.032.416.094l9.655 4.733 4.164 1.766a56.31 56.31 0 0 0 8.923 1.753c4.921.562 8.314.312 9.136.449-.832-.088-4.216.367-9.182.099a57.13 57.13 0 0 1-9.143-1.239c-.766-.17-2.46-.8-4.434-1.591-4.304-1.725-9.951-4.217-9.951-4.217zm-9.069-23.077c-.197-.191-.201-.506-.01-.702s.506-.201.702-.01l4.446 4.387c1.564 1.34 3.351 2.611 5.178 3.481-1.511-.606-3.003-1.483-4.396-2.437l-3.02-2.282-2.9-2.437zm33.476 46.973c-.049-.004-.084-.047-.08-.095s.047-.085.095-.08c1.781.1 3.487-.019 5.108-.206 1.789-.206 3.475-.517 5.018-.926 5.119-1.356 8.689-3.611 9.326-4.151-.618.572-4.088 3.077-9.205 4.587-1.556.46-3.264.843-5.087 1.002-1.647.145-3.383.089-5.176-.131h.001zm20.731 7.82c-.049-.005-.083-.049-.079-.096s.049-.083.097-.079c2.247.207 4.998.122 7.614-.249 1.299-.184 2.557-.469 3.72-.771 1.37-.355 2.605-.746 3.558-1.322-.818.634-1.729 1.139-2.701 1.497-.913.343-1.934.587-2.994.779-3.068.555-6.515.571-9.215.241zm22.492 13.833c-.606-.051-1.057-.584-1.006-1.191.047-.568.527-1.01 1.096-1.01a.97.97 0 0 1 .094.004l9.182.92c1.27.07 2.38.095 3.093.014.254-.029.445-.035.533-.104.868-.667 2.819-2.69 4.226-4.013l1.106-.972c-.807.811-2.493 3.069-3.726 4.546l-1.016 1.119c-.377.363-2.09.618-4.223.711-3.941.172-9.359-.023-9.359-.023v-.001zm-40.431 53.614c-.231.404-.754.546-1.158.316s-.546-.754-.316-1.158c.225-.378.93-1.243 1.975-2.234.897-.851 2.046-1.792 3.231-2.718 2.243-1.756 4.626-3.364 5.945-3.669-1.035.405-2.654 1.807-4.297 3.434l-3.915 4.262-1.464 1.766-.001.001zm3.37 7.47c.005.03.008.06.008.09 0 .291-.24.53-.53.53a.53.53 0 0 1-.523-.44c-.183-.94-.378-2.323.258-4.024.27-.723.71-1.49 1.34-2.304 1.363-1.76 3.676-3.731 7.558-5.816-3.541 2.423-5.567 4.568-6.726 6.399-.423.67-.766 1.388-1.024 2.137-.515 1.465-.483 2.619-.361 3.428zm7.104-6.652c-1.231.771-2.018 1.973-2.503 3.377-.664 1.92-.74 4.215-.483 6.3.001.015.002.03.002.045a.56.56 0 0 1-.519.558c-.309.023-.579-.208-.603-.517-.069-2.218.207-4.638 1.118-6.582.655-1.397 1.623-2.539 2.987-3.181h.001zm1.788 10.362c-.298.394-.86.472-1.254.174s-.472-.86-.174-1.254l.785-.614 1.105-.929 1.192-1.151 2.799-2.648c-1.047 1.167-2.026 2.394-2.929 3.676l-.848 1.326c-.326.579-.52 1.07-.677 1.421l.001-.001zm6.419-2.602c-.293.313-.785.33-1.097.037s-.33-.784-.037-1.097l1.18-.928 1.085-1.046a34.83 34.83 0 0 0 2.91-3.461l-1.15 1.962-1.746 2.679-1.145 1.854zm-12.771-20.538c-.332.27-.822.22-1.092-.113s-.22-.822.113-1.092l2.193-1.257 2.219-1.169c1.711-.797 3.031-1.151 4.633-1.755-1.513.767-2.797 1.223-4.377 2.224a15.86 15.86 0 0 0-1.958 1.441c-.552.477-1.098 1.052-1.732 1.721h.001zm32.317-13.348c1.592.208 3.545.412 5.361 1.192.465.203.916.438 1.349.702a8.45 8.45 0 0 1 1.849 1.483c.233.339.147.804-.192 1.037s-.804.146-1.036-.193c-.317-.658-.664-1.222-1.124-1.682a5.85 5.85 0 0 0-1.099-.858c-1.651-1.008-3.578-1.321-5.108-1.681zm-9.249-6.512c-.09.052-.191.079-.295.079-.323 0-.59-.267-.59-.59a.59.59 0 0 1 .296-.512l4.104-2.375 4.106-2.388c.93-.588 1.633-1.083 1.89-1.42-.339.621-1.799 1.902-3.537 3.226l-2.33 1.681-3.644 2.299zm42.097 4.557c-.056-.092-.085-.198-.085-.305 0-.324.267-.59.59-.59a.59.59 0 0 1 .506.285c1.094 1.845 1.184 4.124.238 6.049-.913 1.853-2.598 3.212-4.603 3.711-.129.038-.264-.035-.303-.163s.035-.264.164-.303c1.807-.635 3.134-2.037 3.808-3.665.659-1.592.677-3.426-.315-5.02v.001zm-13.053 3.119l.25-.39c.693-.954 1.684-2.659 2.906-3.753.735-.658 1.548-1.103 2.428-1.082.134-.002.245.104.248.239s-.105.245-.239.248c-1.09.064-1.968.984-2.712 2.026-.837 1.172-1.488 2.517-1.976 3.205-.212.298-.423.487-.591.577-.304.162-.577.116-.825-.075-.807-.663-1.704-.617-2.441-.306-.638.269-1.186.71-1.433 1.196-.116.23-.193.453-.134.659.065.174-.024.368-.198.433s-.368-.024-.433-.198c-.243-.53-.086-1.236.36-1.884.323-.471.809-.906 1.388-1.19 1.096-.557 2.42-.442 3.403.297l-.001-.002zm-.033.043c-.105-.027-.193-.024-.137.054.034.048.082.016.137-.054z"/><path d="M442.964 183.785c-3.903 1.157-3.305-3.811 0 0z" fill="none" stroke="#000" stroke-width="3.2"/></g></svg>